<svg width="354" height="52" viewBox="0 0 354 52" fill="none" xmlns="http://www.w3.org/2000/svg">
<rect width="354" height="52" fill="#666666"/>
<rect x="0.5" y="0.5" width="267" height="51" fill="white" stroke="#666666"/>
<path d="M26.184 31.04C25.992 32.4267 25.6293 33.7067 25.096 34.88C24.5627 36.032 23.8693 37.024 23.016 37.856C22.184 38.688 21.192 39.3387 20.04 39.808C18.888 40.2773 17.5867 40.512 16.136 40.512C14.6213 40.512 13.224 40.224 11.944 39.648C10.6853 39.0507 9.59733 38.24 8.68 37.216C7.784 36.1707 7.08 34.9333 6.568 33.504C6.056 32.0533 5.8 30.4747 5.8 28.768C5.8 27.3813 5.992 25.9733 6.376 24.544C6.78133 23.0933 7.41067 21.7813 8.264 20.608C9.11733 19.4347 10.2267 18.4747 11.592 17.728C12.9573 16.9813 14.6107 16.608 16.552 16.608C18.0667 16.608 19.3893 16.864 20.52 17.376C21.6507 17.8667 22.5893 18.496 23.336 19.264C24.104 20.0107 24.68 20.8107 25.064 21.664C25.448 22.5173 25.6507 23.296 25.672 24H25.032C24.968 23.168 24.7227 22.3573 24.296 21.568C23.8693 20.7573 23.2827 20.032 22.536 19.392C21.8107 18.752 20.936 18.24 19.912 17.856C18.9093 17.4507 17.7893 17.248 16.552 17.248C14.6747 17.248 13.0853 17.632 11.784 18.4C10.504 19.1467 9.46933 20.096 8.68 21.248C7.89067 22.3787 7.31467 23.616 6.952 24.96C6.61067 26.304 6.44 27.5733 6.44 28.768C6.44 30.2187 6.65333 31.616 7.08 32.96C7.50667 34.304 8.136 35.488 8.968 36.512C9.8 37.536 10.8133 38.3573 12.008 38.976C13.224 39.5947 14.6 39.904 16.136 39.904C17.5013 39.904 18.728 39.68 19.816 39.232C20.904 38.784 21.8427 38.1653 22.632 37.376C23.4213 36.5867 24.0613 35.648 24.552 34.56C25.0427 33.472 25.3733 32.2987 25.544 31.04H26.184ZM30.2983 32.48L27.2583 40H26.5542L35.8023 17.152H36.6343L45.6583 40H44.9543L41.9463 32.48H30.2983ZM41.6903 31.84L36.2503 17.792H36.1863L30.5543 31.84H41.6903ZM47.6805 40H47.0405V17.152H56.3845C58.7738 17.152 60.5232 17.632 61.6325 18.592C62.7418 19.5307 63.3178 21.0027 63.3605 23.008C63.4032 24.544 62.9978 25.824 62.1445 26.848C61.2912 27.8507 60.0645 28.5333 58.4645 28.896V28.96C59.4245 29.088 60.2032 29.3227 60.8005 29.664C61.3978 29.984 61.8565 30.4107 62.1765 30.944C62.4965 31.4773 62.7098 32.1067 62.8165 32.832C62.9232 33.5573 62.9765 34.3787 62.9765 35.296C62.9765 35.616 62.9872 36.0213 63.0085 36.512C63.0298 36.9813 63.0618 37.4507 63.1045 37.92C63.1472 38.3893 63.2005 38.816 63.2645 39.2C63.3285 39.584 63.4138 39.8507 63.5205 40H62.8165C62.7098 39.7653 62.6245 39.456 62.5605 39.072C62.4965 38.6667 62.4432 38.24 62.4005 37.792C62.3792 37.344 62.3578 36.896 62.3365 36.448C62.3365 35.9787 62.3365 35.5627 62.3365 35.2C62.3365 34.2613 62.2618 33.4293 62.1125 32.704C61.9845 31.9573 61.7072 31.3387 61.2805 30.848C60.8538 30.336 60.2458 29.952 59.4565 29.696C58.6672 29.4187 57.6112 29.28 56.2885 29.28H47.6805V40ZM47.6805 28.64H56.2245C57.0778 28.64 57.8885 28.5333 58.6565 28.32C59.4458 28.1067 60.1392 27.7653 60.7365 27.296C61.3338 26.8267 61.8138 26.24 62.1765 25.536C62.5392 24.8107 62.7205 23.9467 62.7205 22.944C62.6992 21.3227 62.2085 20.064 61.2485 19.168C60.2885 18.2507 58.7205 17.792 56.5445 17.792H47.6805V28.64ZM66.603 17.152H67.243V40H66.603V17.152ZM70.6968 17.152H71.6568L87.2728 39.2H87.3368V17.152H87.9768V40H87.0168L71.4008 17.952H71.3368V40H70.6968V17.152ZM93.1108 32.48L90.0708 40H89.3667L98.6148 17.152H99.4468L108.471 40H107.767L104.759 32.48H93.1108ZM104.503 31.84L99.0628 17.792H98.9988L93.3668 31.84H104.503ZM119.175 27.776H128.359C129.127 27.776 129.853 27.68 130.535 27.488C131.239 27.2747 131.858 26.9653 132.391 26.56C132.925 26.1333 133.351 25.6107 133.671 24.992C133.991 24.3733 134.151 23.6587 134.151 22.848C134.151 21.9733 134.002 21.2267 133.703 20.608C133.405 19.968 132.989 19.4453 132.455 19.04C131.943 18.6133 131.335 18.304 130.631 18.112C129.927 17.8987 129.17 17.792 128.359 17.792H119.175V27.776ZM118.535 17.152H128.359C129.255 17.152 130.087 17.2693 130.855 17.504C131.645 17.7387 132.327 18.1013 132.903 18.592C133.501 19.0613 133.959 19.648 134.279 20.352C134.621 21.056 134.791 21.888 134.791 22.848C134.791 23.5307 134.663 24.1813 134.407 24.8C134.173 25.4187 133.842 25.9627 133.415 26.432C132.989 26.9013 132.477 27.2853 131.879 27.584C131.303 27.8613 130.663 28.0213 129.959 28.064V28.128C130.706 28.1493 131.41 28.2987 132.071 28.576C132.754 28.832 133.341 29.2053 133.831 29.696C134.343 30.1653 134.749 30.752 135.047 31.456C135.346 32.1387 135.495 32.9173 135.495 33.792C135.495 34.816 135.303 35.7227 134.919 36.512C134.557 37.28 134.045 37.92 133.383 38.432C132.722 38.944 131.922 39.3387 130.983 39.616C130.066 39.872 129.063 40 127.975 40H118.535V17.152ZM119.175 39.36H128.263C129.202 39.36 130.066 39.2533 130.855 39.04C131.666 38.8053 132.359 38.464 132.935 38.016C133.533 37.5467 134.002 36.9707 134.343 36.288C134.685 35.584 134.855 34.7627 134.855 33.824C134.855 32.8213 134.663 31.9787 134.279 31.296C133.917 30.6133 133.426 30.0587 132.807 29.632C132.21 29.2053 131.517 28.896 130.727 28.704C129.959 28.512 129.17 28.416 128.359 28.416H119.175V39.36ZM138.962 40H138.322V17.152H147.666C150.055 17.152 151.804 17.632 152.914 18.592C154.023 19.5307 154.599 21.0027 154.642 23.008C154.684 24.544 154.279 25.824 153.426 26.848C152.572 27.8507 151.346 28.5333 149.746 28.896V28.96C150.706 29.088 151.484 29.3227 152.082 29.664C152.679 29.984 153.138 30.4107 153.458 30.944C153.778 31.4773 153.991 32.1067 154.098 32.832C154.204 33.5573 154.258 34.3787 154.258 35.296C154.258 35.616 154.268 36.0213 154.29 36.512C154.311 36.9813 154.343 37.4507 154.386 37.92C154.428 38.3893 154.482 38.816 154.546 39.2C154.61 39.584 154.695 39.8507 154.802 40H154.098C153.991 39.7653 153.906 39.456 153.842 39.072C153.778 38.6667 153.724 38.24 153.682 37.792C153.66 37.344 153.639 36.896 153.618 36.448C153.618 35.9787 153.618 35.5627 153.618 35.2C153.618 34.2613 153.543 33.4293 153.394 32.704C153.266 31.9573 152.988 31.3387 152.562 30.848C152.135 30.336 151.527 29.952 150.738 29.696C149.948 29.4187 148.892 29.28 147.57 29.28H138.962V40ZM138.962 28.64H147.506C148.359 28.64 149.17 28.5333 149.938 28.32C150.727 28.1067 151.42 27.7653 152.018 27.296C152.615 26.8267 153.095 26.24 153.458 25.536C153.82 24.8107 154.002 23.9467 154.002 22.944C153.98 21.3227 153.49 20.064 152.53 19.168C151.57 18.2507 150.002 17.792 147.826 17.792H138.962V28.64ZM157.18 28.576C157.18 26.9547 157.404 25.4187 157.852 23.968C158.322 22.5173 158.994 21.248 159.868 20.16C160.764 19.072 161.863 18.208 163.164 17.568C164.487 16.928 166.002 16.608 167.708 16.608C169.415 16.608 170.919 16.928 172.22 17.568C173.543 18.208 174.642 19.072 175.516 20.16C176.412 21.248 177.084 22.5173 177.532 23.968C178.002 25.4187 178.236 26.9547 178.236 28.576C178.236 30.1973 178.002 31.7333 177.532 33.184C177.084 34.6347 176.412 35.904 175.516 36.992C174.642 38.08 173.543 38.944 172.22 39.584C170.919 40.2027 169.415 40.512 167.708 40.512C166.002 40.512 164.487 40.2027 163.164 39.584C161.863 38.944 160.764 38.08 159.868 36.992C158.994 35.904 158.322 34.6347 157.852 33.184C157.404 31.7333 157.18 30.1973 157.18 28.576ZM157.82 28.576C157.842 30.2187 158.076 31.7333 158.524 33.12C158.994 34.5067 159.644 35.7013 160.476 36.704C161.33 37.7067 162.364 38.496 163.58 39.072C164.796 39.6267 166.172 39.904 167.708 39.904C169.244 39.904 170.62 39.6267 171.836 39.072C173.052 38.496 174.076 37.7067 174.908 36.704C175.762 35.7013 176.412 34.5067 176.86 33.12C177.33 31.7333 177.575 30.2187 177.596 28.576C177.575 26.9333 177.33 25.4187 176.86 24.032C176.412 22.6453 175.762 21.4507 174.908 20.448C174.076 19.4453 173.052 18.6667 171.836 18.112C170.62 17.536 169.244 17.248 167.708 17.248C166.172 17.248 164.796 17.536 163.58 18.112C162.364 18.6667 161.33 19.4453 160.476 20.448C159.644 21.4507 158.994 22.6453 158.524 24.032C158.076 25.4187 157.842 26.9333 157.82 28.576ZM201.395 17.152H202.451V40H201.811V17.952H201.747L192.051 40H191.347L181.651 17.952H181.587V40H180.947V17.152H182.003L191.667 39.168H191.731L201.395 17.152ZM226.364 17.152H227.42V40H226.78V17.952H226.716L217.02 40H216.316L206.62 17.952H206.556V40H205.916V17.152H206.972L216.636 39.168H216.7L226.364 17.152ZM231.524 39.36H246.18V40H230.884V17.152H246.052V17.792H231.524V27.776H245.188V28.416H231.524V39.36ZM245.832 17.792V17.152H262.888V17.792H254.664V40H254.024V17.792H245.832Z" fill="black"/>
<path d="M293.856 16.152H294.496V30.488C294.496 33.56 293.781 35.832 292.352 37.304C290.923 38.776 288.843 39.512 286.112 39.512C283.381 39.512 281.301 38.776 279.872 37.304C278.443 35.832 277.728 33.56 277.728 30.488V16.152H278.368V30.488C278.368 33.24 278.997 35.3307 280.256 36.76C281.515 38.1893 283.467 38.904 286.112 38.904C288.757 38.904 290.709 38.1893 291.968 36.76C293.227 35.3307 293.856 33.24 293.856 30.488V16.152ZM297.947 16.152H298.587V39H297.947V16.152ZM300.12 39.512L310.553 15.608H311.193L300.729 39.512H300.12ZM328.825 16.152H329.465V30.488C329.465 33.56 328.75 35.832 327.321 37.304C325.891 38.776 323.811 39.512 321.081 39.512C318.35 39.512 316.27 38.776 314.841 37.304C313.411 35.832 312.697 33.56 312.697 30.488V16.152H313.337V30.488C313.337 33.24 313.966 35.3307 315.225 36.76C316.483 38.1893 318.435 38.904 321.081 38.904C323.726 38.904 325.678 38.1893 326.937 36.76C328.195 35.3307 328.825 33.24 328.825 30.488V16.152ZM347.508 16.152H348.308L339.988 27.256L348.692 39H347.892L339.54 27.768L331.155 39H330.355L339.124 27.256L330.835 16.152H331.636L339.54 26.744L347.508 16.152Z" fill="white"/>
</svg>
